if (_typeface_js && _typeface_js.loadFace) _typeface_js.loadFace({"glyphs":{"S":{"x_min":48.609375,"x_max":451.421875,"ha":500,"o":"m 318 729 l 318 816 q 259 876 318 876 l 238 876 q 181 816 181 876 l 181 651 q 193 613 181 623 q 229 588 204 604 l 355 520 q 414 484 397 497 q 441 452 431 470 q 451 380 451 433 l 451 168 q 290 0 451 0 l 208 0 q 48 183 48 0 l 48 233 l 181 233 l 181 179 q 241 120 181 120 l 265 120 q 318 179 318 120 l 318 348 q 306 386 318 376 q 270 411 295 395 l 144 481 q 84 519 102 504 q 56 559 65 534 q 48 622 48 583 l 48 826 q 208 997 48 997 l 291 997 q 451 826 451 997 l 451 729 l 318 729 "},"¦":{"x_min":83.34375,"x_max":208.34375,"ha":292,"o":"m 208 483 l 208 997 l 83 997 l 83 483 l 208 483 m 208 -252 l 208 261 l 83 261 l 83 -252 l 208 -252 "},"/":{"x_min":0,"x_max":398.640625,"ha":399,"o":"m 398 1066 l 93 -69 l 0 -69 l 304 1066 l 398 1066 "},"y":{"x_min":13.890625,"x_max":472.265625,"ha":486,"o":"m 311 0 l 177 0 l 177 366 l 13 997 l 145 997 l 245 563 l 250 563 l 340 997 l 472 997 l 311 366 l 311 0 "},"Ž":{"x_min":13.890625,"x_max":393.09375,"ha":407,"o":"m 168 120 l 393 120 l 393 0 l 23 0 l 13 47 l 223 875 l 36 875 l 36 997 l 337 997 l 365 940 l 168 120 m 222 1133 l 280 1214 l 383 1214 l 263 1058 l 180 1058 l 61 1214 l 163 1214 l 222 1133 "},"Á":{"x_min":55.5625,"x_max":475.03125,"ha":531,"o":"m 188 0 l 55 0 l 55 826 q 215 997 55 997 l 315 997 q 475 826 475 997 l 475 0 l 341 0 l 341 365 l 188 365 l 188 0 m 341 486 l 341 818 q 283 876 341 876 l 247 876 q 188 818 188 876 l 188 486 l 341 486 m 268 1062 l 173 1062 l 237 1226 l 360 1226 l 268 1062 "},"g":{"x_min":55.5625,"x_max":470.875,"ha":517,"o":"m 268 365 l 268 486 l 470 486 l 470 0 l 209 0 q 55 168 55 0 l 55 826 q 209 997 55 997 l 301 997 q 470 823 470 997 l 470 715 l 337 715 l 337 804 q 280 876 337 876 l 247 876 q 188 804 188 876 l 188 193 q 247 120 188 120 l 337 120 l 337 365 l 268 365 "},"²":{"x_min":41.671875,"x_max":286.140625,"ha":328,"o":"m 283 538 l 283 463 l 54 463 l 54 654 q 58 686 54 673 q 84 713 62 698 l 173 773 q 193 791 190 783 q 195 813 195 798 l 195 894 q 170 920 195 920 l 151 920 q 125 894 125 920 l 125 854 l 41 854 l 41 900 q 127 997 41 997 l 198 997 q 286 900 286 997 l 286 786 q 281 755 286 766 q 259 733 277 744 l 166 668 q 147 651 151 658 q 144 627 144 644 l 144 538 l 283 538 "},"–":{"x_min":0,"x_max":397.25,"ha":397,"o":"m 0 402 l 0 501 l 397 501 l 397 402 l 0 402 "},"ë":{"x_min":62.5,"x_max":393.09375,"ha":426,"o":"m 62 0 l 62 997 l 393 997 l 393 876 l 195 876 l 195 573 l 370 573 l 370 452 l 195 452 l 195 120 l 393 120 l 393 0 l 62 0 m 190 1198 l 190 1059 l 79 1059 l 79 1198 l 190 1198 m 385 1198 l 385 1059 l 274 1059 l 274 1198 l 385 1198 "},"ƒ":{"x_min":-104.171875,"x_max":402.8125,"ha":435,"o":"m -90 -137 l -20 -137 q 20 -93 15 -137 l 102 579 l 47 579 l 59 687 l 115 687 l 134 855 q 173 966 145 934 q 279 997 201 997 l 402 997 l 388 880 l 304 880 q 258 837 263 880 l 240 687 l 365 687 l 352 579 l 227 579 l 143 -112 q 104 -222 131 -191 q 1 -254 76 -254 l -104 -254 l -90 -137 "},"Î":{"x_min":-30.65625,"x_max":291.59375,"ha":258,"o":"m 62 0 l 62 997 l 195 997 l 195 0 l 62 0 m 130 1143 l 72 1062 l -30 1062 l 88 1218 l 172 1218 l 291 1062 l 188 1062 l 130 1143 "},"e":{"x_min":62.5,"x_max":393.09375,"ha":426,"o":"m 62 0 l 62 997 l 393 997 l 393 876 l 195 876 l 195 573 l 370 573 l 370 452 l 195 452 l 195 120 l 393 120 l 393 0 l 62 0 "},"Ã":{"x_min":55.5625,"x_max":475.03125,"ha":531,"o":"m 188 0 l 55 0 l 55 826 q 215 997 55 997 l 315 997 q 475 826 475 997 l 475 0 l 341 0 l 341 365 l 188 365 l 188 0 m 341 486 l 341 818 q 283 876 341 876 l 247 876 q 188 818 188 876 l 188 486 l 341 486 m 409 1194 q 376 1102 408 1133 q 302 1069 344 1070 q 275 1073 287 1069 q 252 1082 262 1077 q 232 1092 241 1087 q 212 1097 223 1097 q 179 1062 186 1097 l 111 1062 q 140 1151 111 1122 q 209 1183 169 1180 q 234 1179 223 1183 q 257 1169 245 1175 q 279 1159 268 1164 q 302 1155 290 1155 q 326 1167 316 1158 q 337 1194 336 1176 l 409 1194 "},"J":{"x_min":13.890625,"x_max":294.46875,"ha":357,"o":"m 13 120 l 101 120 q 161 193 161 120 l 161 997 l 294 997 l 294 168 q 140 0 294 0 l 13 0 l 13 120 "},"»":{"x_min":41.671875,"x_max":520.875,"ha":538,"o":"m 258 772 l 402 483 l 258 194 l 373 194 l 520 483 l 373 772 l 258 772 m 41 772 l 186 483 l 41 194 l 156 194 l 304 483 l 156 772 l 41 772 "},"©":{"x_min":62.5,"x_max":795.890625,"ha":858,"o":"m 487 616 l 487 683 q 430 736 487 736 q 375 683 375 736 l 375 312 q 430 259 375 259 q 487 312 487 259 l 487 372 l 598 372 l 598 305 q 465 163 598 163 l 391 163 q 258 305 258 163 l 258 690 q 391 832 258 832 l 465 832 q 598 690 598 832 l 598 616 l 487 616 m 266 0 q 62 218 62 0 l 62 776 q 266 997 62 997 l 591 997 q 795 776 795 997 l 795 218 q 591 0 795 0 l 266 0 m 277 100 l 577 100 q 687 220 687 100 l 687 775 q 577 897 687 897 l 277 897 q 169 775 169 897 l 169 220 q 277 100 169 100 "},"˘":{"x_min":50,"x_max":327.796875,"ha":378,"o":"m 130 934 q 150 880 137 898 q 188 862 162 862 q 226 880 211 862 q 245 934 241 898 l 327 934 q 274 817 316 854 q 188 780 231 780 q 98 817 140 780 q 50 934 56 854 l 130 934 "},"ò":{"x_min":55.5625,"x_max":502.8125,"ha":558,"o":"m 216 0 q 55 169 55 0 l 55 826 q 215 997 55 997 l 343 997 q 502 826 502 997 l 502 169 q 341 0 502 0 l 216 0 m 248 120 l 316 120 q 369 179 369 120 l 369 818 q 309 876 369 876 l 247 876 q 188 818 188 876 l 188 179 q 248 120 188 120 m 157 1222 l 279 1222 l 343 1058 l 248 1058 l 157 1222 "},"«":{"x_min":16.671875,"x_max":495.875,"ha":538,"o":"m 279 194 l 136 483 l 279 772 l 163 772 l 16 483 l 163 194 l 279 194 m 495 194 l 352 483 l 495 772 l 380 772 l 233 483 l 380 194 l 495 194 "},"D":{"x_min":62.5,"x_max":481.984375,"ha":538,"o":"m 62 0 l 62 997 l 294 997 q 481 805 481 997 l 481 144 q 322 0 481 0 l 62 0 m 195 120 l 295 120 q 348 165 348 120 l 348 804 q 288 876 348 876 l 195 876 l 195 120 "},"∙":{"x_min":41.671875,"x_max":183.34375,"ha":225,"o":"m 183 558 l 183 389 l 41 389 l 41 558 l 183 558 "},"ł":{"x_min":18.0625,"x_max":386.140625,"ha":386,"o":"m 298 625 l 298 530 l 202 469 l 202 120 l 386 120 l 386 0 l 69 0 l 69 384 l 18 352 l 18 447 l 69 479 l 69 997 l 202 997 l 202 563 l 298 625 "},"ÿ":{"x_min":13.890625,"x_max":472.265625,"ha":486,"o":"m 311 0 l 177 0 l 177 366 l 13 997 l 145 997 l 245 563 l 250 563 l 340 997 l 472 997 l 311 366 l 311 0 m 201 1197 l 201 1058 l 90 1058 l 90 1197 l 201 1197 m 396 1197 l 396 1058 l 285 1058 l 285 1197 l 396 1197 "},"Ł":{"x_min":18.0625,"x_max":386.140625,"ha":386,"o":"m 298 625 l 298 530 l 202 469 l 202 120 l 386 120 l 386 0 l 69 0 l 69 384 l 18 352 l 18 447 l 69 479 l 69 997 l 202 997 l 202 563 l 298 625 "},"í":{"x_min":41.890625,"x_max":228.015625,"ha":258,"o":"m 62 0 l 62 997 l 195 997 l 195 0 l 62 0 m 136 1061 l 41 1061 l 105 1225 l 228 1225 l 136 1061 "},"ˆ":{"x_min":58.34375,"x_max":380.59375,"ha":444,"o":"m 219 861 l 161 780 l 58 780 l 177 936 l 261 936 l 380 780 l 277 780 l 219 861 "},"w":{"x_min":13.890625,"x_max":759.78125,"ha":774,"o":"m 759 997 l 612 0 l 468 0 l 386 577 l 305 0 l 161 0 l 13 997 l 145 997 l 240 250 l 334 997 l 438 997 l 533 250 l 627 997 l 759 997 "},"$":{"x_min":48.609375,"x_max":451.421875,"ha":521,"o":"m 318 729 l 318 816 q 259 876 318 876 l 238 876 q 181 816 181 876 l 181 647 q 193 609 181 619 q 229 584 204 600 l 355 516 q 414 479 397 493 q 441 447 431 466 q 451 376 451 429 l 451 168 q 298 0 451 4 l 298 -105 l 202 -105 l 202 0 q 48 183 48 2 l 48 233 l 181 233 l 181 179 q 241 120 181 120 l 265 120 q 318 179 318 120 l 318 344 q 306 381 318 372 q 270 406 295 391 l 144 477 q 84 515 102 500 q 56 554 65 530 q 48 618 48 579 l 48 826 q 202 997 48 994 l 202 1102 l 298 1102 l 298 997 q 451 826 451 993 l 451 729 l 318 729 "},"\\":{"x_min":0,"x_max":398.640625,"ha":399,"o":"m 94 1066 l 398 -69 l 305 -69 l 0 1066 l 94 1066 "},"Ì":{"x_min":21.109375,"x_max":207.234375,"ha":258,"o":"m 62 0 l 62 997 l 195 997 l 195 0 l 62 0 m 21 1226 l 143 1226 l 207 1062 l 112 1062 l 21 1226 "},"µ":{"x_min":69.453125,"x_max":547.265625,"ha":557,"o":"m 359 997 l 484 997 l 484 138 q 519 100 484 100 l 547 100 l 547 0 l 456 0 l 401 55 q 290 0 355 0 l 188 0 l 188 -252 l 69 -252 l 69 997 l 193 997 l 193 173 q 248 120 193 120 l 359 120 l 359 997 "},"Ç":{"x_min":55.5625,"x_max":461.140625,"ha":503,"o":"m 461 233 l 461 169 q 301 0 461 0 l 215 0 q 55 169 55 0 l 55 827 q 215 997 55 997 l 301 997 q 461 827 461 997 l 461 715 l 327 715 l 327 818 q 268 876 327 876 l 241 876 q 188 818 188 876 l 188 179 q 241 120 188 120 l 275 120 q 327 179 327 120 l 327 233 l 461 233 m 194 -190 l 258 -190 q 293 -156 293 -190 l 293 -137 q 258 -98 293 -98 l 202 -98 l 202 36 l 275 36 l 275 -43 l 287 -43 q 363 -123 363 -43 l 363 -176 q 286 -252 363 -251 l 194 -252 l 194 -190 "},"’":{"x_min":19.453125,"x_max":168.0625,"ha":210,"o":"m 20 632 l 84 811 l 19 811 l 19 998 l 112 998 q 168 943 168 998 l 168 811 l 101 632 l 20 632 "},"-":{"x_min":16.671875,"x_max":322.25,"ha":339,"o":"m 16 390 l 16 501 l 322 501 l 322 390 l 16 390 "},"Q":{"x_min":55.5625,"x_max":579.21875,"ha":579,"o":"m 579 0 l 216 0 q 55 168 55 0 l 55 826 q 215 997 55 997 l 343 997 q 502 826 502 997 l 502 120 l 579 120 l 579 0 m 369 120 l 369 818 q 309 876 369 876 l 247 876 q 188 818 188 876 l 188 179 q 248 120 188 120 l 369 120 "},"M":{"x_min":62.5,"x_max":604.21875,"ha":667,"o":"m 333 411 l 456 997 l 604 997 l 604 0 l 470 0 l 484 652 l 384 180 l 281 180 l 181 652 l 195 0 l 62 0 l 62 997 l 209 997 l 333 411 "},"C":{"x_min":55.5625,"x_max":461.140625,"ha":503,"o":"m 461 233 l 461 169 q 301 0 461 0 l 215 0 q 55 169 55 0 l 55 827 q 215 997 55 997 l 301 997 q 461 827 461 997 l 461 715 l 327 715 l 327 818 q 268 876 327 876 l 241 876 q 188 818 188 876 l 188 179 q 241 120 188 120 l 275 120 q 327 179 327 120 l 327 233 l 461 233 "},"œ":{"x_min":55.5625,"x_max":715.328125,"ha":743,"o":"m 715 120 l 715 0 l 434 0 l 434 41 l 379 0 l 215 0 q 55 170 55 0 l 55 826 q 215 997 55 997 l 379 997 l 434 955 l 434 997 l 715 997 l 715 875 l 518 875 l 518 573 l 693 573 l 693 452 l 518 452 l 518 120 l 715 120 m 248 120 l 333 120 q 386 180 386 120 l 386 816 q 326 876 386 876 l 247 876 q 188 818 188 876 l 188 179 q 248 120 188 120 "},"!":{"x_min":62.5,"x_max":209.734375,"ha":271,"o":"m 209 997 l 193 269 l 80 269 l 62 997 l 209 997 m 209 169 l 209 0 l 68 0 l 68 169 l 209 169 "},"ç":{"x_min":55.5625,"x_max":461.140625,"ha":503,"o":"m 461 233 l 461 169 q 301 0 461 0 l 215 0 q 55 169 55 0 l 55 827 q 215 997 55 997 l 301 997 q 461 827 461 997 l 461 715 l 327 715 l 327 818 q 268 876 327 876 l 241 876 q 188 818 188 876 l 188 179 q 241 120 188 120 l 275 120 q 327 179 327 120 l 327 233 l 461 233 m 198 -190 l 262 -190 q 297 -156 297 -190 l 297 -137 q 262 -98 297 -98 l 206 -98 l 206 36 l 279 36 l 279 -43 l 291 -43 q 367 -123 367 -43 l 367 -176 q 290 -252 367 -251 l 198 -252 l 198 -190 "},"È":{"x_min":62.5,"x_max":393.09375,"ha":426,"o":"m 62 0 l 62 997 l 393 997 l 393 876 l 195 876 l 195 573 l 370 573 l 370 452 l 195 452 l 195 120 l 393 120 l 393 0 l 62 0 m 104 1226 l 226 1226 l 290 1062 l 195 1062 l 104 1226 "},"ﬁ":{"x_min":62.5,"x_max":595.875,"ha":658,"o":"m 462 0 l 462 876 l 195 876 l 195 573 l 370 573 l 370 452 l 195 452 l 195 0 l 62 0 l 62 997 l 462 997 l 595 997 l 595 0 l 462 0 "},"{":{"x_min":6.9375,"x_max":315.296875,"ha":315,"o":"m 115 420 q 202 301 202 393 l 202 -86 q 262 -156 202 -156 l 315 -156 l 315 -252 l 240 -252 q 86 -81 86 -252 l 86 288 q 6 361 86 361 l 6 473 q 86 545 86 473 l 86 826 q 240 997 86 997 l 315 997 l 315 901 l 262 901 q 202 830 202 901 l 202 527 q 115 420 202 440 "},"X":{"x_min":19.453125,"x_max":443.09375,"ha":463,"o":"m 440 0 l 311 0 l 236 379 l 233 379 l 143 0 l 19 0 l 145 504 l 27 997 l 158 997 l 233 629 l 236 629 l 319 997 l 443 997 l 323 504 l 440 0 "},"ô":{"x_min":55.5625,"x_max":502.8125,"ha":558,"o":"m 216 0 q 55 169 55 0 l 55 826 q 215 997 55 997 l 343 997 q 502 826 502 997 l 502 169 q 341 0 502 0 l 216 0 m 248 120 l 316 120 q 369 179 369 120 l 369 818 q 309 876 369 876 l 247 876 q 188 818 188 876 l 188 179 q 248 120 188 120 m 275 1139 l 217 1058 l 114 1058 l 233 1214 l 317 1214 l 436 1058 l 333 1058 l 275 1139 "},"¼":{"x_min":41.671875,"x_max":651.4375,"ha":707,"o":"m 604 1038 l 152 -41 l 73 -41 l 522 1038 l 604 1038 m 600 100 l 600 0 l 509 0 l 509 100 l 351 100 l 337 175 l 480 511 l 600 511 l 600 176 l 651 176 l 651 100 l 600 100 m 516 402 l 508 402 l 434 176 l 509 176 l 516 402 m 56 852 l 41 915 q 119 997 95 940 l 202 997 l 202 463 l 112 463 l 112 869 l 56 852 "},"#":{"x_min":0,"x_max":604.21875,"ha":646,"o":"m 436 997 l 530 997 l 501 759 l 604 759 l 593 665 l 490 665 l 450 338 l 552 338 l 541 244 l 437 244 l 408 0 l 313 0 l 343 244 l 202 244 l 173 0 l 79 0 l 108 244 l 0 244 l 11 338 l 120 338 l 161 665 l 51 665 l 62 759 l 172 759 l 201 997 l 295 997 l 266 759 l 406 759 l 436 997 m 215 338 l 355 338 l 395 665 l 255 665 l 215 338 "},"Ê":{"x_min":58.34375,"x_max":393.09375,"ha":426,"o":"m 62 0 l 62 997 l 393 997 l 393 876 l 195 876 l 195 573 l 370 573 l 370 452 l 195 452 l 195 120 l 393 120 l 393 0 l 62 0 m 219 1143 l 161 1062 l 58 1062 l 177 1218 l 261 1218 l 380 1062 l 277 1062 l 219 1143 "},")":{"x_min":0,"x_max":216.6875,"ha":286,"o":"m 0 -254 l 63 -254 q 216 -84 216 -254 l 216 826 q 63 997 216 997 l 0 997 l 0 891 l 41 891 q 100 820 100 891 l 100 -79 q 41 -150 100 -150 l 0 -150 l 0 -254 "},"Å":{"x_min":55.5625,"x_max":475.03125,"ha":531,"o":"m 188 0 l 55 0 l 55 826 q 215 997 55 997 l 315 997 q 475 826 475 997 l 475 0 l 341 0 l 341 365 l 188 365 l 188 0 m 341 486 l 341 818 q 283 876 341 876 l 247 876 q 188 818 188 876 l 188 486 l 341 486 m 364 1133 q 335 1057 364 1087 q 260 1026 305 1026 q 187 1057 219 1026 q 155 1133 155 1087 q 187 1211 155 1180 q 260 1241 219 1241 q 335 1211 305 1241 q 364 1133 364 1180 m 308 1133 q 294 1168 308 1154 q 260 1182 280 1182 q 227 1168 241 1182 q 213 1133 213 1154 q 227 1098 213 1112 q 260 1084 241 1084 q 294 1098 280 1084 q 308 1133 308 1112 "},"ø":{"x_min":55.5625,"x_max":502.8125,"ha":558,"o":"m 418 1080 l 401 990 q 502 826 502 962 l 502 169 q 341 0 502 0 l 216 0 l 215 0 l 200 -83 l 137 -83 l 154 6 q 55 169 55 36 l 55 826 q 215 997 55 997 l 340 997 l 355 1080 l 418 1080 m 369 820 l 237 120 l 316 120 q 369 179 369 120 l 369 820 m 188 188 l 316 876 l 247 876 q 188 818 188 876 l 188 188 "},"â":{"x_min":55.5625,"x_max":475.03125,"ha":531,"o":"m 188 0 l 55 0 l 55 826 q 215 997 55 997 l 315 997 q 475 826 475 997 l 475 0 l 341 0 l 341 365 l 188 365 l 188 0 m 341 486 l 341 818 q 283 876 341 876 l 247 876 q 188 818 188 876 l 188 486 l 341 486 m 188 0 l 55 0 l 55 826 q 215 997 55 997 l 315 997 q 475 826 475 997 l 475 0 l 341 0 l 341 365 l 188 365 l 188 0 m 341 486 l 341 818 q 283 876 341 876 l 247 876 q 188 818 188 876 l 188 486 l 341 486 m 268 1153 l 210 1072 l 107 1072 l 226 1228 l 310 1228 l 429 1072 l 326 1072 l 268 1153 "},"}":{"x_min":0,"x_max":308.359375,"ha":315,"o":"m 200 420 q 111 527 111 440 l 111 830 q 51 901 111 901 l 0 901 l 0 997 l 75 997 q 227 826 227 997 l 227 545 q 308 473 227 473 l 308 361 q 227 288 227 361 l 227 -81 q 75 -252 227 -252 l 0 -252 l 0 -156 l 51 -156 q 111 -86 111 -156 l 111 301 q 200 420 111 393 "},"‰":{"x_min":55.5625,"x_max":1144.53125,"ha":1200,"o":"m 630 997 l 313 0 l 229 0 l 545 997 l 630 997 m 209 463 l 165 463 q 55 568 55 463 l 55 893 q 165 997 55 997 l 209 997 q 319 893 319 997 l 319 568 q 209 463 319 463 m 197 920 l 176 920 q 145 882 145 920 l 145 577 q 176 538 145 538 l 197 538 q 229 577 229 538 l 229 882 q 197 920 229 920 m 694 0 l 650 0 q 540 104 540 0 l 540 429 q 650 533 540 533 l 694 533 q 804 429 804 533 l 804 104 q 694 0 804 0 m 682 456 l 661 456 q 630 418 630 456 l 630 113 q 661 75 630 75 l 682 75 q 713 113 713 75 l 713 418 q 682 456 713 456 m 1034 0 l 990 0 q 880 104 880 0 l 880 429 q 990 533 880 533 l 1034 533 q 1144 429 1144 533 l 1144 104 q 1034 0 1144 0 m 1022 456 l 1001 456 q 970 418 970 456 l 970 113 q 1001 75 970 75 l 1022 75 q 1054 113 1054 75 l 1054 418 q 1022 456 1054 456 "},"Ä":{"x_min":55.5625,"x_max":475.03125,"ha":531,"o":"m 188 0 l 55 0 l 55 826 q 215 997 55 997 l 315 997 q 475 826 475 997 l 475 0 l 341 0 l 341 365 l 188 365 l 188 0 m 341 486 l 341 818 q 283 876 341 876 l 247 876 q 188 818 188 876 l 188 486 l 341 486 m 212 1201 l 212 1062 l 101 1062 l 101 1201 l 212 1201 m 407 1201 l 407 1062 l 296 1062 l 296 1201 l 407 1201 "},"¸":{"x_min":69.453125,"x_max":238.90625,"ha":308,"o":"m 69 -190 l 133 -190 q 168 -156 168 -190 l 168 -137 q 133 -98 168 -98 l 77 -98 l 77 36 l 150 36 l 150 -43 l 162 -43 q 238 -123 238 -43 l 238 -176 q 161 -252 238 -251 l 69 -252 l 69 -190 "},"a":{"x_min":55.5625,"x_max":475.03125,"ha":531,"o":"m 188 0 l 55 0 l 55 826 q 215 997 55 997 l 315 997 q 475 826 475 997 l 475 0 l 341 0 l 341 365 l 188 365 l 188 0 m 341 486 l 341 818 q 283 876 341 876 l 247 876 q 188 818 188 876 l 188 486 l 341 486 "},"—":{"x_min":0,"x_max":652.828125,"ha":653,"o":"m 0 402 l 0 501 l 652 501 l 652 402 l 0 402 "},"=":{"x_min":55.5625,"x_max":458.375,"ha":514,"o":"m 55 533 l 55 647 l 458 647 l 458 533 l 55 533 m 55 308 l 55 422 l 458 422 l 458 308 l 55 308 "},"N":{"x_min":62.5,"x_max":472.265625,"ha":535,"o":"m 338 515 l 338 997 l 472 997 l 472 0 l 338 0 l 338 198 l 195 652 l 195 0 l 62 0 l 62 997 l 195 997 l 338 515 "},"˚":{"x_min":47.21875,"x_max":256.96875,"ha":299,"o":"m 256 851 q 227 775 256 805 q 152 744 197 744 q 79 775 111 744 q 47 851 47 805 q 79 929 47 898 q 152 959 111 959 q 227 929 197 959 q 256 851 256 898 m 200 851 q 186 886 200 872 q 152 900 172 900 q 119 886 133 900 q 105 851 105 872 q 119 816 105 830 q 152 802 133 802 q 186 816 172 802 q 200 851 200 830 "},"ú":{"x_min":62.5,"x_max":495.875,"ha":558,"o":"m 495 997 l 495 188 q 334 0 495 0 l 222 0 q 62 190 62 0 l 62 997 l 195 997 l 195 186 q 254 120 195 120 l 308 120 q 362 186 362 120 l 362 997 l 495 997 m 300 1044 l 205 1044 l 269 1208 l 392 1208 l 300 1044 "},"⁄":{"x_min":0,"x_max":420.859375,"ha":421,"o":"m 420 1080 l 320 1080 l 0 -83 l 98 -83 l 420 1080 "},"2":{"x_min":51.390625,"x_max":440.3125,"ha":513,"o":"m 433 119 l 433 0 l 75 0 l 75 306 q 79 348 75 331 q 93 379 83 365 q 130 420 104 394 l 265 550 q 289 576 280 565 q 302 595 298 587 q 306 611 305 602 q 306 633 306 619 l 306 818 q 250 876 306 876 l 241 876 q 184 818 184 876 l 184 715 l 51 715 l 51 826 q 211 997 51 997 l 280 997 q 440 826 440 997 l 440 587 q 432 538 440 559 q 393 487 425 518 l 245 345 q 213 309 218 319 q 209 290 209 300 q 208 263 208 280 l 208 119 l 433 119 "},"ü":{"x_min":62.5,"x_max":495.875,"ha":558,"o":"m 495 997 l 495 188 q 334 0 495 0 l 222 0 q 62 190 62 0 l 62 997 l 195 997 l 195 186 q 254 120 195 120 l 308 120 q 362 186 362 120 l 362 997 l 495 997 m 235 1197 l 235 1058 l 124 1058 l 124 1197 l 235 1197 m 430 1197 l 430 1058 l 319 1058 l 319 1197 l 430 1197 "},"¯":{"x_min":25,"x_max":372.25,"ha":397,"o":"m 372 836 l 372 934 l 25 934 l 25 836 l 372 836 "},"Z":{"x_min":13.890625,"x_max":393.09375,"ha":407,"o":"m 168 120 l 393 120 l 393 0 l 23 0 l 13 47 l 223 875 l 36 875 l 36 997 l 337 997 l 365 940 l 168 120 "},"u":{"x_min":62.5,"x_max":495.875,"ha":558,"o":"m 495 997 l 495 188 q 334 0 495 0 l 222 0 q 62 190 62 0 l 62 997 l 195 997 l 195 186 q 254 120 195 120 l 308 120 q 362 186 362 120 l 362 997 l 495 997 "},"˜":{"x_min":54.171875,"x_max":352.8125,"ha":408,"o":"m 352 912 q 319 820 351 851 q 245 787 287 788 q 218 791 230 787 q 195 800 205 795 q 175 810 184 805 q 155 815 166 815 q 122 780 129 815 l 54 780 q 83 869 54 840 q 152 901 112 898 q 177 897 166 901 q 200 887 188 893 q 222 877 211 882 q 245 873 233 873 q 269 885 259 876 q 280 912 279 894 l 352 912 "},"Ó":{"x_min":55.5625,"x_max":502.8125,"ha":558,"o":"m 216 0 q 55 169 55 0 l 55 826 q 215 997 55 997 l 343 997 q 502 826 502 997 l 502 169 q 341 0 502 0 l 216 0 m 248 120 l 316 120 q 369 179 369 120 l 369 818 q 309 876 369 876 l 247 876 q 188 818 188 876 l 188 179 q 248 120 188 120 m 293 1062 l 198 1062 l 262 1226 l 385 1226 l 293 1062 "},"k":{"x_min":62.5,"x_max":502.8125,"ha":517,"o":"m 195 0 l 62 0 l 62 997 l 195 997 l 195 0 m 502 0 l 369 0 l 202 487 l 202 495 l 341 997 l 463 997 l 323 501 l 502 0 "},"ˇ":{"x_min":61.109375,"x_max":383.359375,"ha":444,"o":"m 222 855 l 280 936 l 383 936 l 263 780 l 180 780 l 61 936 l 163 936 l 222 855 "},"Ù":{"x_min":62.5,"x_max":495.875,"ha":558,"o":"m 495 997 l 495 188 q 334 0 495 0 l 222 0 q 62 190 62 0 l 62 997 l 195 997 l 195 186 q 254 120 195 120 l 308 120 q 362 186 362 120 l 362 997 l 495 997 m 164 1226 l 286 1226 l 350 1062 l 255 1062 l 164 1226 "},"Ÿ":{"x_min":13.890625,"x_max":472.265625,"ha":486,"o":"m 311 0 l 177 0 l 177 366 l 13 997 l 145 997 l 245 563 l 250 563 l 340 997 l 472 997 l 311 366 l 311 0 m 183 1201 l 183 1062 l 72 1062 l 72 1201 l 183 1201 m 378 1201 l 378 1062 l 267 1062 l 267 1201 l 378 1201 "},"€":{"x_min":13.890625,"x_max":477.8125,"ha":533,"o":"m 329 622 l 329 541 l 197 541 l 197 483 l 283 483 l 283 401 l 197 401 l 197 179 q 255 120 197 120 l 290 120 q 344 176 344 120 l 344 216 l 477 216 l 477 168 q 316 0 477 0 l 223 0 q 63 175 63 0 l 63 401 l 13 401 l 13 483 l 63 483 l 63 541 l 13 541 l 13 622 l 63 622 l 63 826 q 223 997 63 997 l 316 997 q 477 826 477 997 l 477 772 l 344 772 l 344 816 q 283 876 344 876 l 255 876 q 197 818 197 876 l 197 622 l 329 622 "},"¢":{"x_min":55.5625,"x_max":426.421875,"ha":482,"o":"m 306 709 l 306 761 q 250 815 306 815 l 237 815 q 180 761 180 815 l 180 351 q 237 297 180 297 l 250 297 q 306 351 306 297 l 306 398 l 426 398 l 426 340 q 293 198 426 198 l 288 198 l 288 115 l 191 115 l 191 198 l 188 198 q 55 340 55 198 l 55 772 q 187 913 55 913 l 191 913 l 191 997 l 288 997 l 288 913 l 293 913 q 426 772 426 913 l 426 709 l 306 709 "},"ß":{"x_min":62.5,"x_max":544.484375,"ha":600,"o":"m 247 120 l 358 120 q 411 179 411 120 l 411 376 q 363 430 411 430 l 276 430 l 276 623 l 323 623 q 362 662 362 623 l 362 815 q 305 876 362 876 l 250 876 q 195 815 195 876 l 195 0 l 62 0 l 62 830 q 215 997 62 997 l 334 997 q 495 827 495 997 l 495 672 q 398 530 495 537 l 398 523 q 544 372 544 519 l 544 141 q 393 0 544 0 l 247 0 l 247 120 "},"é":{"x_min":62.5,"x_max":393.09375,"ha":426,"o":"m 62 0 l 62 997 l 393 997 l 393 876 l 195 876 l 195 573 l 370 573 l 370 452 l 195 452 l 195 120 l 393 120 l 393 0 l 62 0 m 247 1072 l 152 1072 l 216 1236 l 339 1236 l 247 1072 "},"s":{"x_min":48.609375,"x_max":451.421875,"ha":500,"o":"m 318 729 l 318 816 q 259 876 318 876 l 238 876 q 181 816 181 876 l 181 651 q 193 613 181 623 q 229 588 204 604 l 355 520 q 414 484 397 497 q 441 452 431 470 q 451 380 451 433 l 451 168 q 290 0 451 0 l 208 0 q 48 183 48 0 l 48 233 l 181 233 l 181 179 q 241 120 181 120 l 265 120 q 318 179 318 120 l 318 348 q 306 386 318 376 q 270 411 295 395 l 144 481 q 84 519 102 504 q 56 559 65 534 q 48 622 48 583 l 48 826 q 208 997 48 997 l 291 997 q 451 826 451 997 l 451 729 l 318 729 "},"B":{"x_min":62.5,"x_max":481.984375,"ha":531,"o":"m 372 512 q 481 398 481 481 l 481 148 q 330 0 481 0 l 62 0 l 62 997 l 290 997 q 468 816 468 997 l 468 625 q 372 519 468 538 l 372 512 m 195 120 l 295 120 q 348 163 348 120 l 348 384 q 269 455 348 455 l 195 455 l 195 120 m 195 576 l 258 576 q 334 648 334 576 l 334 804 q 275 876 334 876 l 195 876 l 195 576 "},"…":{"x_min":41.671875,"x_max":633.34375,"ha":676,"o":"m 183 169 l 183 0 l 41 0 l 41 169 l 183 169 m 408 169 l 408 0 l 266 0 l 266 169 l 408 169 m 633 169 l 633 0 l 491 0 l 491 169 l 633 169 "},"?":{"x_min":34.71875,"x_max":466.703125,"ha":522,"o":"m 168 269 l 168 437 q 172 484 168 468 q 185 511 177 501 q 212 536 193 520 l 308 607 q 329 632 325 620 q 333 672 333 644 l 333 815 q 275 876 333 876 l 223 876 q 168 815 168 876 l 168 743 l 34 743 l 34 826 q 194 997 34 997 l 308 997 q 466 826 466 997 l 466 623 q 461 576 466 593 q 446 548 456 559 q 419 525 436 537 l 326 452 q 305 428 309 440 q 301 388 301 416 l 301 269 l 168 269 m 308 169 l 308 0 l 166 0 l 166 169 l 308 169 "},"H":{"x_min":62.5,"x_max":493.09375,"ha":556,"o":"m 359 0 l 359 452 l 195 452 l 195 0 l 62 0 l 62 997 l 195 997 l 195 573 l 359 573 l 359 997 l 493 997 l 493 0 l 359 0 "},"î":{"x_min":-37.65625,"x_max":284.59375,"ha":258,"o":"m 62 0 l 62 997 l 195 997 l 195 0 l 62 0 m 123 1143 l 65 1062 l -37 1062 l 81 1218 l 165 1218 l 284 1062 l 181 1062 l 123 1143 "},"c":{"x_min":55.5625,"x_max":461.140625,"ha":503,"o":"m 461 233 l 461 169 q 301 0 461 0 l 215 0 q 55 169 55 0 l 55 827 q 215 997 55 997 l 301 997 q 461 827 461 997 l 461 715 l 327 715 l 327 818 q 268 876 327 876 l 241 876 q 188 818 188 876 l 188 179 q 241 120 188 120 l 275 120 q 327 179 327 120 l 327 233 l 461 233 "},"¶":{"x_min":55.5625,"x_max":581.984375,"ha":651,"o":"m 483 -138 l 483 897 l 248 897 q 188 825 188 897 l 188 657 q 248 584 188 584 l 302 584 l 302 818 l 411 818 l 411 -138 l 302 -138 l 302 472 l 208 472 q 55 650 55 472 l 55 826 q 208 997 55 997 l 581 997 l 581 -138 l 483 -138 "},"−":{"x_min":55.5625,"x_max":416.703125,"ha":472,"o":"m 55 416 l 55 534 l 416 534 l 416 416 l 55 416 "},"•":{"x_min":0,"x_max":183.34375,"ha":267,"o":"m 183 657 l 183 404 l 0 404 l 0 657 l 183 657 "},"¥":{"x_min":13.890625,"x_max":472.265625,"ha":486,"o":"m 397 240 l 397 172 l 311 172 l 311 0 l 177 0 l 177 172 l 91 172 l 91 240 l 177 240 l 177 284 l 91 284 l 91 352 l 177 352 l 177 366 l 13 997 l 145 997 l 245 563 l 250 563 l 340 997 l 472 997 l 311 366 l 311 352 l 397 352 l 397 284 l 311 284 l 311 240 l 397 240 "},"(":{"x_min":69.453125,"x_max":286.140625,"ha":286,"o":"m 286 -254 l 222 -254 q 69 -84 69 -254 l 69 826 q 222 997 69 997 l 286 997 l 286 891 l 244 891 q 186 820 186 891 l 186 -79 q 244 -150 186 -150 l 286 -150 l 286 -254 "},"U":{"x_min":62.5,"x_max":495.875,"ha":558,"o":"m 495 997 l 495 188 q 334 0 495 0 l 222 0 q 62 190 62 0 l 62 997 l 195 997 l 195 186 q 254 120 195 120 l 308 120 q 362 186 362 120 l 362 997 l 495 997 "},"Ñ":{"x_min":62.5,"x_max":472.265625,"ha":563,"o":"m 338 515 l 338 997 l 472 997 l 472 0 l 338 0 l 338 198 l 195 652 l 195 0 l 62 0 l 62 997 l 195 997 l 338 515 m 430 1194 q 397 1102 429 1133 q 323 1069 365 1070 q 296 1073 308 1069 q 273 1082 283 1077 q 253 1092 262 1087 q 233 1097 244 1097 q 200 1062 207 1097 l 132 1062 q 161 1151 132 1122 q 230 1183 190 1180 q 255 1179 244 1183 q 278 1169 266 1175 q 300 1159 289 1164 q 323 1155 311 1155 q 347 1167 337 1158 q 358 1194 357 1176 l 430 1194 "},"F":{"x_min":62.5,"x_max":393.09375,"ha":421,"o":"m 370 573 l 370 452 l 195 452 l 195 0 l 62 0 l 62 997 l 393 997 l 393 876 l 195 876 l 195 573 l 370 573 "},"­":{"x_min":16.671875,"x_max":322.25,"ha":339,"o":"m 16 390 l 16 501 l 322 501 l 322 390 l 16 390 "},":":{"x_min":38.890625,"x_max":180.5625,"ha":222,"o":"m 180 169 l 180 0 l 38 0 l 38 169 l 180 169 m 180 715 l 180 545 l 38 545 l 38 715 l 180 715 "},"Û":{"x_min":62.5,"x_max":495.875,"ha":558,"o":"m 495 997 l 495 188 q 334 0 495 0 l 222 0 q 62 190 62 0 l 62 997 l 195 997 l 195 186 q 254 120 195 120 l 308 120 q 362 186 362 120 l 362 997 l 495 997 m 279 1143 l 221 1062 l 118 1062 l 237 1218 l 321 1218 l 440 1062 l 337 1062 l 279 1143 "},"*":{"x_min":33.34375,"x_max":444.484375,"ha":478,"o":"m 113 1000 l 211 900 l 222 908 l 233 1051 l 363 1008 l 294 883 l 300 873 l 440 907 l 444 784 l 308 804 l 302 794 l 386 684 l 272 619 l 233 761 l 220 765 l 119 659 l 41 761 l 166 820 l 163 833 l 33 891 l 113 1000 "},"†":{"x_min":27.78125,"x_max":469.484375,"ha":497,"o":"m 469 586 l 469 715 l 313 715 l 313 997 l 181 997 l 181 715 l 27 715 l 27 586 l 181 586 l 181 -252 l 313 -252 l 313 586 l 469 586 "},"∕":{"x_min":0,"x_max":420.859375,"ha":421,"o":"m 420 1080 l 320 1080 l 0 -83 l 98 -83 l 420 1080 "},"°":{"x_min":41.671875,"x_max":338.921875,"ha":381,"o":"m 41 857 q 53 797 41 825 q 84 751 65 770 q 131 720 104 732 q 188 708 158 708 q 247 720 219 708 q 295 751 275 732 q 327 797 315 770 q 338 857 338 825 q 327 914 338 887 q 295 961 315 941 q 247 993 275 982 q 188 1005 219 1005 q 131 993 158 1005 q 84 961 104 982 q 53 914 65 941 q 41 857 41 887 m 105 857 q 129 917 105 893 q 188 941 154 941 q 247 917 222 941 q 272 857 272 893 q 247 799 272 823 q 188 775 222 775 q 129 799 154 775 q 105 857 105 823 "},"V":{"x_min":13.890625,"x_max":494.484375,"ha":508,"o":"m 494 997 l 333 0 l 175 0 l 13 997 l 145 997 l 254 236 l 362 997 l 494 997 "},"å":{"x_min":55.5625,"x_max":475.03125,"ha":531,"o":"m 188 0 l 55 0 l 55 826 q 215 997 55 997 l 315 997 q 475 826 475 997 l 475 0 l 341 0 l 341 365 l 188 365 l 188 0 m 341 486 l 341 818 q 283 876 341 876 l 247 876 q 188 818 188 876 l 188 486 l 341 486 m 373 1129 q 344 1053 373 1083 q 269 1022 314 1022 q 196 1053 228 1022 q 164 1129 164 1083 q 196 1207 164 1176 q 269 1237 228 1237 q 344 1207 314 1237 q 373 1129 373 1176 m 317 1129 q 303 1164 317 1150 q 269 1178 289 1178 q 236 1164 250 1178 q 222 1129 222 1150 q 236 1094 222 1108 q 269 1080 250 1080 q 303 1094 289 1080 q 317 1129 317 1108 "}," ":{"x_min":0,"x_max":0,"ha":222},"0":{"x_min":62.5,"x_max":475.03125,"ha":538,"o":"m 222 0 q 62 170 62 0 l 62 826 q 222 997 62 997 l 315 997 q 475 826 475 997 l 475 170 q 315 0 475 0 l 222 0 m 248 876 q 195 818 195 876 l 195 179 q 255 120 195 120 l 288 120 q 341 179 341 120 l 341 818 q 281 876 341 876 l 248 876 "},"”":{"x_min":33.34375,"x_max":402.8125,"ha":443,"o":"m 255 632 l 319 811 l 254 811 l 254 998 l 347 998 q 402 943 402 998 l 402 811 l 336 632 l 255 632 m 34 632 l 98 811 l 33 811 l 33 998 l 126 998 q 181 943 181 998 l 181 811 l 115 632 l 34 632 "},"¾":{"x_min":55.5625,"x_max":738.953125,"ha":795,"o":"m 691 1038 l 240 -41 l 161 -41 l 609 1038 l 691 1038 m 687 100 l 687 0 l 597 0 l 597 100 l 438 100 l 425 175 l 568 511 l 687 511 l 687 176 l 738 176 l 738 100 l 687 100 m 604 402 l 595 402 l 522 176 l 597 176 l 604 402 m 263 737 q 320 677 320 722 l 320 548 q 234 463 320 463 l 141 463 q 55 548 55 463 l 55 598 l 145 598 l 145 566 q 176 540 145 540 l 201 540 q 230 569 230 540 l 230 663 q 202 701 230 701 l 163 702 l 163 768 l 191 769 q 222 801 222 769 l 222 895 q 193 920 222 920 l 177 920 q 148 895 148 920 l 148 857 l 58 857 l 58 894 q 144 997 58 997 l 226 997 q 312 894 312 997 l 312 793 q 263 737 312 747 "},"@":{"x_min":69.453125,"x_max":707,"ha":776,"o":"m 547 229 l 615 229 l 615 763 q 573 875 615 838 q 444 911 531 911 l 319 911 q 201 866 241 909 q 161 745 161 822 l 161 87 l 707 87 l 707 0 l 69 0 l 69 740 q 138 934 69 869 q 315 997 206 998 l 440 997 q 647 934 588 997 q 707 770 707 870 l 707 147 l 448 147 l 448 388 l 340 388 l 340 147 l 241 147 l 241 716 q 359 843 241 843 l 429 843 q 547 716 547 843 l 547 229 m 448 479 l 448 711 q 405 754 448 754 l 383 754 q 340 711 340 754 l 340 479 l 448 479 "},"ö":{"x_min":55.5625,"x_max":502.8125,"ha":558,"o":"m 216 0 q 55 169 55 0 l 55 826 q 215 997 55 997 l 343 997 q 502 826 502 997 l 502 169 q 341 0 502 0 l 216 0 m 248 120 l 316 120 q 369 179 369 120 l 369 818 q 309 876 369 876 l 247 876 q 188 818 188 876 l 188 179 q 248 120 188 120 m 235 1197 l 235 1058 l 124 1058 l 124 1197 l 235 1197 m 430 1197 l 430 1058 l 319 1058 l 319 1197 l 430 1197 "},"i":{"x_min":62.5,"x_max":195.84375,"ha":258,"o":"m 62 0 l 62 997 l 195 997 l 195 0 l 62 0 "},"Õ":{"x_min":55.5625,"x_max":502.8125,"ha":558,"o":"m 216 0 q 55 169 55 0 l 55 826 q 215 997 55 997 l 343 997 q 502 826 502 997 l 502 169 q 341 0 502 0 l 216 0 m 248 120 l 316 120 q 369 179 369 120 l 369 818 q 309 876 369 876 l 247 876 q 188 818 188 876 l 188 179 q 248 120 188 120 m 421 1194 q 388 1102 420 1133 q 314 1069 356 1070 q 287 1073 299 1069 q 264 1082 274 1077 q 244 1092 253 1087 q 224 1097 235 1097 q 191 1062 198 1097 l 123 1062 q 152 1151 123 1122 q 221 1183 181 1180 q 246 1179 235 1183 q 269 1169 257 1175 q 291 1159 280 1164 q 314 1155 302 1155 q 338 1167 328 1158 q 349 1194 348 1176 l 421 1194 "},"þ":{"x_min":62.5,"x_max":481.984375,"ha":524,"o":"m 194 830 l 323 830 q 481 659 481 830 l 481 480 q 320 312 481 312 l 195 312 l 195 0 l 62 0 l 62 997 l 194 997 l 194 830 m 195 433 l 295 433 q 348 491 348 433 l 348 651 q 288 709 348 709 l 195 709 l 195 433 "},"]":{"x_min":0,"x_max":215.296875,"ha":285,"o":"m 0 -254 l 0 -155 l 100 -155 l 100 898 l 0 898 l 0 997 l 215 997 l 215 -254 l 0 -254 "},"m":{"x_min":62.5,"x_max":604.21875,"ha":667,"o":"m 333 411 l 456 997 l 604 997 l 604 0 l 470 0 l 484 652 l 384 180 l 281 180 l 181 652 l 195 0 l 62 0 l 62 997 l 209 997 l 333 411 "},"8":{"x_min":55.5625,"x_max":476.421875,"ha":532,"o":"m 161 508 q 65 629 65 529 l 65 826 q 225 997 65 997 l 306 997 q 466 826 466 997 l 466 627 q 379 506 466 527 q 476 387 476 479 l 476 169 q 316 0 476 0 l 215 0 q 55 169 55 0 l 55 388 q 161 508 55 480 m 248 120 l 283 120 q 343 193 343 120 l 343 379 q 266 450 343 450 q 188 380 188 448 l 188 193 q 248 120 188 120 m 198 802 l 198 637 q 258 565 198 565 l 273 565 q 333 636 333 575 l 333 802 q 273 875 333 875 l 258 875 q 198 802 198 875 "},"ž":{"x_min":13.890625,"x_max":393.09375,"ha":407,"o":"m 168 120 l 393 120 l 393 0 l 23 0 l 13 47 l 223 875 l 36 875 l 36 997 l 337 997 l 365 940 l 168 120 m 222 1147 l 280 1228 l 383 1228 l 263 1072 l 180 1072 l 61 1228 l 163 1228 l 222 1147 "},"R":{"x_min":62.5,"x_max":490.3125,"ha":525,"o":"m 62 997 l 323 997 q 476 826 476 997 l 476 580 q 397 415 476 450 l 490 0 l 363 0 l 276 402 l 195 402 l 195 0 l 62 0 l 62 997 m 195 516 l 283 516 q 343 588 343 516 l 343 804 q 283 876 343 876 l 195 876 l 195 516 "},"á":{"x_min":55.5625,"x_max":475.03125,"ha":531,"o":"m 188 0 l 55 0 l 55 826 q 215 997 55 997 l 315 997 q 475 826 475 997 l 475 0 l 341 0 l 341 365 l 188 365 l 188 0 m 341 486 l 341 818 q 283 876 341 876 l 247 876 q 188 818 188 876 l 188 486 l 341 486 m 275 1072 l 180 1072 l 244 1236 l 367 1236 l 275 1072 "},"×":{"x_min":45.84375,"x_max":477.8125,"ha":525,"o":"m 468 575 l 380 663 l 262 533 l 134 675 l 45 588 l 184 456 l 54 340 l 143 251 l 261 380 l 391 240 l 477 326 l 337 456 l 468 575 "},"o":{"x_min":55.5625,"x_max":502.8125,"ha":558,"o":"m 216 0 q 55 169 55 0 l 55 826 q 215 997 55 997 l 343 997 q 502 826 502 997 l 502 169 q 341 0 502 0 l 216 0 m 248 120 l 316 120 q 369 179 369 120 l 369 818 q 309 876 369 876 l 247 876 q 188 818 188 876 l 188 179 q 248 120 188 120 "},"5":{"x_min":55.5625,"x_max":450.03125,"ha":506,"o":"m 55 233 l 188 233 l 188 179 q 241 120 188 120 l 256 120 q 316 179 316 120 l 316 406 q 261 472 316 472 l 59 472 l 59 997 l 436 997 l 436 873 l 184 873 l 184 593 l 290 593 q 450 416 450 593 l 450 176 q 290 0 450 0 l 215 0 q 55 169 55 0 l 55 233 "},"õ":{"x_min":55.5625,"x_max":502.8125,"ha":558,"o":"m 216 0 q 55 169 55 0 l 55 826 q 215 997 55 997 l 343 997 q 502 826 502 997 l 502 169 q 341 0 502 0 l 216 0 m 248 120 l 316 120 q 369 179 369 120 l 369 818 q 309 876 369 876 l 247 876 q 188 818 188 876 l 188 179 q 248 120 188 120 m 421 1190 q 388 1098 420 1129 q 314 1065 356 1066 q 287 1069 299 1065 q 264 1078 274 1073 q 244 1088 253 1083 q 224 1093 235 1093 q 191 1058 198 1093 l 123 1058 q 152 1147 123 1118 q 221 1179 181 1176 q 246 1175 235 1179 q 269 1165 257 1171 q 291 1155 280 1160 q 314 1151 302 1151 q 338 1163 328 1154 q 349 1190 348 1172 l 421 1190 "},"7":{"x_min":13.890625,"x_max":400.03125,"ha":421,"o":"m 90 0 l 262 873 l 13 873 l 13 997 l 362 997 l 400 925 l 222 0 l 90 0 "},"K":{"x_min":62.5,"x_max":502.8125,"ha":517,"o":"m 195 0 l 62 0 l 62 997 l 195 997 l 195 0 m 502 0 l 369 0 l 202 487 l 202 495 l 341 997 l 463 997 l 323 501 l 502 0 "},",":{"x_min":41.671875,"x_max":190.296875,"ha":232,"o":"m 43 -165 l 106 0 l 41 0 l 41 172 l 190 172 l 190 0 l 123 -165 l 43 -165 "},"d":{"x_min":62.5,"x_max":481.984375,"ha":538,"o":"m 62 0 l 62 997 l 294 997 q 481 805 481 997 l 481 144 q 322 0 481 0 l 62 0 m 195 120 l 295 120 q 348 165 348 120 l 348 804 q 288 876 348 876 l 195 876 l 195 120 "},"¨":{"x_min":41.671875,"x_max":347.25,"ha":389,"o":"m 152 919 l 152 780 l 41 780 l 41 919 l 152 919 m 347 919 l 347 780 l 236 780 l 236 919 l 347 919 "},"Ô":{"x_min":55.5625,"x_max":502.8125,"ha":558,"o":"m 216 0 q 55 169 55 0 l 55 826 q 215 997 55 997 l 343 997 q 502 826 502 997 l 502 169 q 341 0 502 0 l 216 0 m 248 120 l 316 120 q 369 179 369 120 l 369 818 q 309 876 369 876 l 247 876 q 188 818 188 876 l 188 179 q 248 120 188 120 m 279 1143 l 221 1062 l 118 1062 l 237 1218 l 321 1218 l 440 1062 l 337 1062 l 279 1143 "},"E":{"x_min":62.5,"x_max":393.09375,"ha":426,"o":"m 62 0 l 62 997 l 393 997 l 393 876 l 195 876 l 195 573 l 370 573 l 370 452 l 195 452 l 195 120 l 393 120 l 393 0 l 62 0 "},"Y":{"x_min":13.890625,"x_max":472.265625,"ha":486,"o":"m 311 0 l 177 0 l 177 366 l 13 997 l 145 997 l 245 563 l 250 563 l 340 997 l 472 997 l 311 366 l 311 0 "},"\"":{"x_min":25,"x_max":356.96875,"ha":382,"o":"m 225 997 l 356 997 l 340 583 l 241 583 l 225 997 m 25 997 l 156 997 l 140 583 l 41 583 l 25 997 "},"‹":{"x_min":16.671875,"x_max":279.1875,"ha":321,"o":"m 279 194 l 136 483 l 279 772 l 163 772 l 16 483 l 163 194 l 279 194 "},"˙":{"x_min":38.890625,"x_max":180.5625,"ha":222,"o":"m 180 950 l 180 780 l 38 780 l 38 950 l 180 950 "},"ê":{"x_min":62.5,"x_max":393.09375,"ha":426,"o":"m 62 0 l 62 997 l 393 997 l 393 876 l 195 876 l 195 573 l 370 573 l 370 452 l 195 452 l 195 120 l 393 120 l 393 0 l 62 0 m 225 1139 l 167 1058 l 64 1058 l 183 1214 l 267 1214 l 386 1058 l 283 1058 l 225 1139 "},"Ï":{"x_min":-22.328125,"x_max":283.25,"ha":258,"o":"m 62 0 l 62 997 l 195 997 l 195 0 l 62 0 m 88 1201 l 88 1062 l -22 1062 l -22 1201 l 88 1201 m 283 1201 l 283 1062 l 172 1062 l 172 1201 l 283 1201 "},"„":{"x_min":33.34375,"x_max":402.8125,"ha":443,"o":"m 255 -206 l 319 -26 l 254 -26 l 254 160 l 347 160 q 402 105 402 160 l 402 -26 l 336 -206 l 255 -206 m 34 -206 l 98 -26 l 33 -26 l 33 160 l 126 160 q 181 105 181 160 l 181 -26 l 115 -206 l 34 -206 "},"Â":{"x_min":55.5625,"x_max":475.03125,"ha":531,"o":"m 188 0 l 55 0 l 55 826 q 215 997 55 997 l 315 997 q 475 826 475 997 l 475 0 l 341 0 l 341 365 l 188 365 l 188 0 m 341 486 l 341 818 q 283 876 341 876 l 247 876 q 188 818 188 876 l 188 486 l 341 486 m 258 1143 l 200 1062 l 97 1062 l 216 1218 l 300 1218 l 419 1062 l 316 1062 l 258 1143 "},"Í":{"x_min":37.890625,"x_max":224.015625,"ha":258,"o":"m 62 0 l 62 997 l 195 997 l 195 0 l 62 0 m 132 1062 l 37 1062 l 101 1226 l 224 1226 l 132 1062 "},"´":{"x_min":13.890625,"x_max":200.015625,"ha":211,"o":"m 108 780 l 13 780 l 77 944 l 200 944 l 108 780 "},"ì":{"x_min":25.109375,"x_max":211.234375,"ha":258,"o":"m 62 0 l 62 997 l 195 997 l 195 0 l 62 0 m 25 1222 l 147 1222 l 211 1058 l 116 1058 l 25 1222 "},"±":{"x_min":55.5625,"x_max":473.65625,"ha":501,"o":"m 330 566 l 330 411 l 208 411 l 208 566 l 55 566 l 55 683 l 208 683 l 208 844 l 330 844 l 330 683 l 473 683 l 473 566 l 330 566 m 55 184 l 55 302 l 416 302 l 416 184 l 55 184 "},"Ú":{"x_min":62.5,"x_max":495.875,"ha":558,"o":"m 495 997 l 495 188 q 334 0 495 0 l 222 0 q 62 190 62 0 l 62 997 l 195 997 l 195 186 q 254 120 195 120 l 308 120 q 362 186 362 120 l 362 997 l 495 997 m 282 1062 l 187 1062 l 251 1226 l 374 1226 l 282 1062 "},"|":{"x_min":70.84375,"x_max":193.078125,"ha":264,"o":"m 70 -111 l 70 1108 l 193 1108 l 193 -111 l 70 -111 "},"§":{"x_min":55.5625,"x_max":419.484375,"ha":475,"o":"m 298 798 l 298 844 q 245 898 298 898 q 188 844 188 898 l 188 744 q 197 718 188 725 q 223 704 205 712 l 318 668 q 357 652 338 659 q 388 634 376 644 q 408 609 401 625 q 415 569 415 594 l 415 479 q 376 373 415 404 q 402 347 394 362 q 409 306 409 331 l 409 141 q 276 0 409 0 l 188 0 q 55 141 55 0 l 55 216 l 176 216 l 176 151 q 231 97 176 97 q 286 151 286 97 l 286 243 q 279 279 286 265 q 245 304 273 293 l 155 337 q 118 350 136 343 q 86 369 101 358 q 64 396 72 380 q 56 434 56 412 l 56 523 q 97 629 56 604 q 71 659 79 643 q 63 698 63 675 l 63 855 q 197 997 63 997 l 286 997 q 419 855 419 997 l 419 798 l 298 798 m 293 522 q 238 575 293 575 q 181 522 181 575 l 181 484 q 238 430 181 430 q 293 484 293 430 l 293 522 "},"Ý":{"x_min":13.890625,"x_max":472.265625,"ha":486,"o":"m 311 0 l 177 0 l 177 366 l 13 997 l 145 997 l 245 563 l 250 563 l 340 997 l 472 997 l 311 366 l 311 0 m 246 1062 l 151 1062 l 215 1226 l 338 1226 l 246 1062 "},"b":{"x_min":62.5,"x_max":481.984375,"ha":531,"o":"m 372 512 q 481 398 481 481 l 481 148 q 330 0 481 0 l 62 0 l 62 997 l 290 997 q 468 816 468 997 l 468 625 q 372 519 468 538 l 372 512 m 195 120 l 295 120 q 348 163 348 120 l 348 384 q 269 455 348 455 l 195 455 l 195 120 m 195 576 l 258 576 q 334 648 334 576 l 334 804 q 275 876 334 876 l 195 876 l 195 576 "},"q":{"x_min":55.5625,"x_max":579.21875,"ha":579,"o":"m 579 0 l 216 0 q 55 168 55 0 l 55 826 q 215 997 55 997 l 343 997 q 502 826 502 997 l 502 120 l 579 120 l 579 0 m 369 120 l 369 818 q 309 876 369 876 l 247 876 q 188 818 188 876 l 188 179 q 248 120 188 120 l 369 120 "},"Ö":{"x_min":55.5625,"x_max":502.8125,"ha":558,"o":"m 216 0 q 55 169 55 0 l 55 826 q 215 997 55 997 l 343 997 q 502 826 502 997 l 502 169 q 341 0 502 0 l 216 0 m 248 120 l 316 120 q 369 179 369 120 l 369 818 q 309 876 369 876 l 247 876 q 188 818 188 876 l 188 179 q 248 120 188 120 m 233 1201 l 233 1062 l 122 1062 l 122 1201 l 233 1201 m 428 1201 l 428 1062 l 317 1062 l 317 1201 l 428 1201 "},"ﬂ":{"x_min":62.5,"x_max":779.234375,"ha":793,"o":"m 779 0 l 462 0 l 462 876 l 195 876 l 195 573 l 370 573 l 370 452 l 195 452 l 195 0 l 62 0 l 62 997 l 462 997 l 595 997 l 595 120 l 779 120 l 779 0 "},"z":{"x_min":13.890625,"x_max":393.09375,"ha":407,"o":"m 168 120 l 393 120 l 393 0 l 23 0 l 13 47 l 223 875 l 36 875 l 36 997 l 337 997 l 365 940 l 168 120 "},"™":{"x_min":27.78125,"x_max":629.21875,"ha":671,"o":"m 261 926 l 261 997 l 27 997 l 27 926 l 105 926 l 105 416 l 181 416 l 181 926 l 261 926 m 470 657 l 543 997 l 629 997 l 629 416 l 551 416 l 559 797 l 501 522 l 441 522 l 383 797 l 391 416 l 313 416 l 313 997 l 400 997 l 470 657 "},"ã":{"x_min":55.5625,"x_max":475.03125,"ha":531,"o":"m 188 0 l 55 0 l 55 826 q 215 997 55 997 l 315 997 q 475 826 475 997 l 475 0 l 341 0 l 341 365 l 188 365 l 188 0 m 341 486 l 341 818 q 283 876 341 876 l 247 876 q 188 818 188 876 l 188 486 l 341 486 m 415 1190 q 382 1098 414 1129 q 308 1065 350 1066 q 281 1069 293 1065 q 258 1078 268 1073 q 238 1088 247 1083 q 218 1093 229 1093 q 185 1058 192 1093 l 117 1058 q 146 1147 117 1118 q 215 1179 175 1176 q 240 1175 229 1179 q 263 1165 251 1171 q 285 1155 274 1160 q 308 1151 296 1151 q 332 1163 322 1154 q 343 1190 342 1172 l 415 1190 "},"æ":{"x_min":55.5625,"x_max":672.28125,"ha":707,"o":"m 188 0 l 55 0 l 55 826 q 215 997 55 997 l 672 997 l 672 876 l 475 876 l 475 573 l 650 573 l 650 452 l 475 452 l 475 120 l 672 120 l 672 0 l 341 0 l 341 365 l 188 365 l 188 0 m 341 486 l 341 876 l 247 876 q 188 818 188 876 l 188 486 l 341 486 "},"®":{"x_min":62.5,"x_max":790.34375,"ha":853,"o":"m 601 169 l 495 169 l 431 419 l 377 419 l 377 169 l 261 169 l 261 819 l 488 819 q 593 702 593 819 l 593 534 q 533 426 593 451 l 601 169 m 377 515 l 434 515 q 476 565 476 515 l 476 668 q 434 716 476 716 l 377 716 l 377 515 m 266 0 q 62 218 62 0 l 62 776 q 266 997 62 997 l 586 997 q 790 776 790 997 l 790 218 q 586 0 790 0 l 266 0 m 277 100 l 572 100 q 682 220 682 100 l 682 775 q 572 897 682 897 l 277 897 q 169 775 169 897 l 169 220 q 277 100 169 100 "},"É":{"x_min":62.5,"x_max":393.09375,"ha":426,"o":"m 62 0 l 62 997 l 393 997 l 393 876 l 195 876 l 195 573 l 370 573 l 370 452 l 195 452 l 195 120 l 393 120 l 393 0 l 62 0 m 229 1062 l 134 1062 l 198 1226 l 321 1226 l 229 1062 "},"³":{"x_min":41.671875,"x_max":306.96875,"ha":349,"o":"m 250 737 q 306 677 306 722 l 306 548 q 220 463 306 463 l 127 463 q 41 548 41 463 l 41 598 l 131 598 l 131 566 q 162 540 131 540 l 187 540 q 216 569 216 540 l 216 663 q 188 701 216 701 l 150 702 l 150 768 l 177 769 q 208 801 208 769 l 208 895 q 179 920 208 920 l 163 920 q 134 895 134 920 l 134 857 l 44 857 l 44 894 q 130 997 44 997 l 212 997 q 298 894 298 997 l 298 793 q 250 737 298 747 "},"¡":{"x_min":63.890625,"x_max":211.125,"ha":271,"o":"m 63 0 l 80 727 l 193 727 l 211 0 l 63 0 m 63 827 l 63 997 l 205 997 l 205 827 l 63 827 "},"[":{"x_min":69.453125,"x_max":284.75,"ha":285,"o":"m 69 -254 l 69 997 l 284 997 l 284 898 l 184 898 l 184 -155 l 284 -155 l 284 -254 l 69 -254 "},"L":{"x_min":62.5,"x_max":379.203125,"ha":393,"o":"m 379 0 l 62 0 l 62 997 l 195 997 l 195 120 l 379 120 l 379 0 "},";":{"x_min":38.890625,"x_max":205.578125,"ha":222,"o":"m 58 -165 l 122 0 l 56 0 l 56 172 l 205 172 l 205 0 l 138 -165 l 58 -165 m 180 715 l 180 545 l 38 545 l 38 715 l 180 715 "}," ":{"x_min":0,"x_max":0,"ha":222},"%":{"x_min":55.5625,"x_max":804.234375,"ha":860,"o":"m 630 997 l 313 0 l 229 0 l 545 997 l 630 997 m 209 463 l 165 463 q 55 568 55 463 l 55 893 q 165 997 55 997 l 209 997 q 319 893 319 997 l 319 568 q 209 463 319 463 m 197 920 l 176 920 q 145 882 145 920 l 145 577 q 176 538 145 538 l 197 538 q 229 577 229 538 l 229 882 q 197 920 229 920 m 694 0 l 650 0 q 540 104 540 0 l 540 429 q 650 533 540 533 l 694 533 q 804 429 804 533 l 804 104 q 694 0 804 0 m 682 456 l 661 456 q 630 418 630 456 l 630 113 q 661 75 630 75 l 682 75 q 713 113 713 75 l 713 418 q 682 456 713 456 "},"P":{"x_min":62.5,"x_max":466.703125,"ha":510,"o":"m 62 997 l 305 997 q 466 826 466 997 l 466 530 q 306 361 466 361 l 195 361 l 195 0 l 62 0 l 62 997 m 195 481 l 280 481 q 333 540 333 481 l 333 818 q 273 876 333 876 l 195 876 l 195 481 "},"À":{"x_min":55.5625,"x_max":475.03125,"ha":531,"o":"m 188 0 l 55 0 l 55 826 q 215 997 55 997 l 315 997 q 475 826 475 997 l 475 0 l 341 0 l 341 365 l 188 365 l 188 0 m 341 486 l 341 818 q 283 876 341 876 l 247 876 q 188 818 188 876 l 188 486 l 341 486 m 165 1226 l 287 1226 l 351 1062 l 256 1062 l 165 1226 "},"_":{"x_min":0,"x_max":381.96875,"ha":382,"o":"m 0 -98 l 0 0 l 381 0 l 381 -98 l 0 -98 "},"ñ":{"x_min":62.5,"x_max":472.265625,"ha":535,"o":"m 338 515 l 338 997 l 472 997 l 472 0 l 338 0 l 338 198 l 195 652 l 195 0 l 62 0 l 62 997 l 195 997 l 338 515 m 417 1190 q 384 1098 416 1129 q 310 1065 352 1066 q 283 1069 295 1065 q 260 1078 270 1073 q 240 1088 249 1083 q 220 1093 231 1093 q 187 1058 194 1093 l 119 1058 q 148 1147 119 1118 q 217 1179 177 1176 q 242 1175 231 1179 q 265 1165 253 1171 q 287 1155 276 1160 q 310 1151 298 1151 q 334 1163 324 1154 q 345 1190 344 1172 l 417 1190 "},"+":{"x_min":55.5625,"x_max":473.65625,"ha":529,"o":"m 330 416 l 330 261 l 208 261 l 208 416 l 55 416 l 55 533 l 208 533 l 208 694 l 330 694 l 330 533 l 473 533 l 473 416 l 330 416 "},"‚":{"x_min":19.453125,"x_max":168.0625,"ha":224,"o":"m 20 -206 l 84 -26 l 19 -26 l 19 160 l 112 160 q 168 105 168 160 l 168 -26 l 101 -206 l 20 -206 "},"½":{"x_min":41.671875,"x_max":700.0625,"ha":756,"o":"m 604 1038 l 152 -41 l 73 -41 l 522 1038 l 604 1038 m 56 852 l 41 915 q 119 997 95 940 l 202 997 l 202 463 l 112 463 l 112 869 l 56 852 m 697 75 l 697 0 l 468 0 l 468 190 q 472 222 468 209 q 498 250 476 234 l 587 309 q 606 327 604 319 q 609 350 609 334 l 609 430 q 584 456 609 456 l 565 456 q 538 430 538 456 l 538 390 l 455 390 l 455 436 q 541 533 455 533 l 612 533 q 700 436 700 533 l 700 322 q 695 291 700 302 q 673 269 691 280 l 580 204 q 561 187 565 194 q 558 163 558 180 l 558 75 l 697 75 "},"Æ":{"x_min":55.5625,"x_max":672.28125,"ha":707,"o":"m 188 0 l 55 0 l 55 826 q 215 997 55 997 l 672 997 l 672 876 l 475 876 l 475 573 l 650 573 l 650 452 l 475 452 l 475 120 l 672 120 l 672 0 l 341 0 l 341 365 l 188 365 l 188 0 m 341 486 l 341 876 l 247 876 q 188 818 188 876 l 188 486 l 341 486 "},"":{"x_min":13.890625,"x_max":393.09375,"ha":407,"o":"m 168 120 l 393 120 l 393 0 l 23 0 l 13 47 l 223 875 l 36 875 l 36 997 l 337 997 l 365 940 l 168 120 m 222 1133 l 280 1214 l 383 1214 l 263 1058 l 180 1058 l 61 1214 l 163 1214 l 222 1133 "},"Ë":{"x_min":62.5,"x_max":393.09375,"ha":426,"o":"m 62 0 l 62 997 l 393 997 l 393 876 l 195 876 l 195 573 l 370 573 l 370 452 l 195 452 l 195 120 l 393 120 l 393 0 l 62 0 m 178 1201 l 178 1062 l 67 1062 l 67 1201 l 178 1201 m 373 1201 l 373 1062 l 262 1062 l 262 1201 l 373 1201 "},"'":{"x_min":16.671875,"x_max":148.625,"ha":165,"o":"m 16 997 l 148 997 l 131 583 l 33 583 l 16 997 "},"Š":{"x_min":48.609375,"x_max":451.421875,"ha":500,"o":"m 318 729 l 318 816 q 259 876 318 876 l 238 876 q 181 816 181 876 l 181 651 q 193 613 181 623 q 229 588 204 604 l 355 520 q 414 484 397 497 q 441 452 431 470 q 451 380 451 433 l 451 168 q 290 0 451 0 l 208 0 q 48 183 48 0 l 48 233 l 181 233 l 181 179 q 241 120 181 120 l 265 120 q 318 179 318 120 l 318 348 q 306 386 318 376 q 270 411 295 395 l 144 481 q 84 519 102 504 q 56 559 65 534 q 48 622 48 583 l 48 826 q 208 997 48 997 l 291 997 q 451 826 451 997 l 451 729 l 318 729 m 250 1137 l 308 1218 l 411 1218 l 291 1062 l 208 1062 l 89 1218 l 191 1218 l 250 1137 "},"ª":{"x_min":41.671875,"x_max":375.03125,"ha":417,"o":"m 147 319 l 41 319 l 41 841 q 201 997 41 997 l 215 997 q 375 841 375 997 l 375 319 l 269 319 l 269 529 l 147 529 l 147 319 m 269 622 l 269 843 q 211 905 269 905 l 205 905 q 147 843 147 905 l 147 622 l 269 622 "},"Œ":{"x_min":55.5625,"x_max":715.328125,"ha":743,"o":"m 715 120 l 715 0 l 434 0 l 434 41 l 379 0 l 215 0 q 55 170 55 0 l 55 826 q 215 997 55 997 l 379 997 l 434 955 l 434 997 l 715 997 l 715 875 l 518 875 l 518 573 l 693 573 l 693 452 l 518 452 l 518 120 l 715 120 m 248 120 l 333 120 q 386 180 386 120 l 386 816 q 326 876 386 876 l 247 876 q 188 818 188 876 l 188 179 q 248 120 188 120 "},"˛":{"x_min":50,"x_max":252.796875,"ha":303,"o":"m 244 33 q 164 -43 186 -12 q 143 -108 143 -75 q 190 -154 143 -154 q 252 -133 218 -154 l 252 -229 q 170 -247 215 -247 q 85 -215 120 -247 q 50 -133 50 -184 q 53 -95 50 -113 q 69 -56 56 -76 q 103 -14 81 -37 q 161 33 125 8 l 244 33 "},"ð":{"x_min":16,"x_max":481.984375,"ha":538,"o":"m 62 0 l 62 997 l 294 997 q 481 805 481 997 l 481 144 q 322 0 481 0 l 62 0 m 195 120 l 295 120 q 348 165 348 120 l 348 804 q 288 876 348 876 l 195 876 l 195 120 m 16 423 l 16 534 l 291 534 l 291 423 l 16 423 "},"T":{"x_min":13.890625,"x_max":402.8125,"ha":417,"o":"m 275 876 l 275 0 l 141 0 l 141 876 l 13 876 l 13 997 l 402 997 l 402 876 l 275 876 "},"š":{"x_min":48.609375,"x_max":451.421875,"ha":500,"o":"m 318 729 l 318 816 q 259 876 318 876 l 238 876 q 181 816 181 876 l 181 651 q 193 613 181 623 q 229 588 204 604 l 355 520 q 414 484 397 497 q 441 452 431 470 q 451 380 451 433 l 451 168 q 290 0 451 0 l 208 0 q 48 183 48 0 l 48 233 l 181 233 l 181 179 q 241 120 181 120 l 265 120 q 318 179 318 120 l 318 348 q 306 386 318 376 q 270 411 295 395 l 144 481 q 84 519 102 504 q 56 559 65 534 q 48 622 48 583 l 48 826 q 208 997 48 997 l 291 997 q 451 826 451 997 l 451 729 l 318 729 m 236 1133 l 294 1214 l 397 1214 l 277 1058 l 194 1058 l 75 1214 l 177 1214 l 236 1133 "},"Þ":{"x_min":62.5,"x_max":481.984375,"ha":524,"o":"m 194 830 l 323 830 q 481 659 481 830 l 481 480 q 320 312 481 312 l 195 312 l 195 0 l 62 0 l 62 997 l 194 997 l 194 830 m 195 433 l 295 433 q 348 491 348 433 l 348 651 q 288 709 348 709 l 195 709 l 195 433 "},"j":{"x_min":13.890625,"x_max":294.46875,"ha":357,"o":"m 13 120 l 101 120 q 161 193 161 120 l 161 997 l 294 997 l 294 168 q 140 0 294 0 l 13 0 l 13 120 "},"1":{"x_min":20.828125,"x_max":266.6875,"ha":336,"o":"m 51 776 l 20 868 q 108 922 72 887 q 165 997 144 957 l 179 997 l 266 950 l 266 0 l 134 0 l 134 801 l 51 776 "},"›":{"x_min":41.671875,"x_max":304.1875,"ha":321,"o":"m 41 194 l 156 194 l 304 483 l 156 772 l 41 772 l 186 483 l 41 194 "},"ı":{"x_min":62.5,"x_max":195.84375,"ha":258,"o":"m 62 0 l 62 997 l 195 997 l 195 0 l 62 0 "},"ä":{"x_min":55.5625,"x_max":475.03125,"ha":531,"o":"m 188 0 l 55 0 l 55 826 q 215 997 55 997 l 315 997 q 475 826 475 997 l 475 0 l 341 0 l 341 365 l 188 365 l 188 0 m 341 486 l 341 818 q 283 876 341 876 l 247 876 q 188 818 188 876 l 188 486 l 341 486 m 219 1197 l 219 1058 l 108 1058 l 108 1197 l 219 1197 m 414 1197 l 414 1058 l 303 1058 l 303 1197 l 414 1197 "},"<":{"x_min":16.671875,"x_max":361.140625,"ha":428,"o":"m 361 66 l 361 229 l 140 429 l 361 630 l 361 795 l 16 473 l 16 386 l 361 66 "},"£":{"x_min":4.171875,"x_max":504.203125,"ha":546,"o":"m 504 250 l 504 168 q 343 0 504 0 l 54 0 l 54 486 l 4 486 l 4 593 l 54 593 l 54 826 q 213 997 54 997 l 343 997 q 504 826 504 997 l 504 738 l 370 738 l 370 818 q 309 876 370 876 l 245 876 q 187 818 187 876 l 187 593 l 340 593 l 340 486 l 187 486 l 187 120 l 318 120 q 370 179 370 120 l 370 250 l 504 250 "},"¹":{"x_min":19.453125,"x_max":180.5625,"ha":222,"o":"m 34 852 l 19 915 q 97 997 73 940 l 180 997 l 180 463 l 90 463 l 90 869 l 34 852 "},"t":{"x_min":13.890625,"x_max":402.8125,"ha":417,"o":"m 275 876 l 275 0 l 141 0 l 141 876 l 13 876 l 13 997 l 402 997 l 402 876 l 275 876 "},"¬":{"x_min":58.34375,"x_max":513.9375,"ha":578,"o":"m 58 416 l 58 533 l 513 533 l 513 288 l 393 288 l 393 416 l 58 416 "},"ù":{"x_min":62.5,"x_max":495.875,"ha":558,"o":"m 495 997 l 495 188 q 334 0 495 0 l 222 0 q 62 190 62 0 l 62 997 l 195 997 l 195 186 q 254 120 195 120 l 308 120 q 362 186 362 120 l 362 997 l 495 997 m 136 1208 l 258 1208 l 322 1044 l 227 1044 l 136 1208 "},"W":{"x_min":13.890625,"x_max":759.78125,"ha":774,"o":"m 759 997 l 612 0 l 468 0 l 386 577 l 305 0 l 161 0 l 13 997 l 145 997 l 240 250 l 334 997 l 438 997 l 533 250 l 627 997 l 759 997 "},"ï":{"x_min":-26.328125,"x_max":279.25,"ha":258,"o":"m 62 0 l 62 997 l 195 997 l 195 0 l 62 0 m 84 1197 l 84 1058 l -26 1058 l -26 1197 l 84 1197 m 279 1197 l 279 1058 l 168 1058 l 168 1197 l 279 1197 "},">":{"x_min":66.671875,"x_max":411.140625,"ha":428,"o":"m 66 63 l 411 386 l 411 475 l 66 793 l 66 630 l 287 430 l 66 229 l 66 63 "},"v":{"x_min":13.890625,"x_max":494.484375,"ha":508,"o":"m 494 997 l 333 0 l 175 0 l 13 997 l 145 997 l 254 236 l 362 997 l 494 997 "},"û":{"x_min":62.5,"x_max":495.875,"ha":558,"o":"m 495 997 l 495 188 q 334 0 495 0 l 222 0 q 62 190 62 0 l 62 997 l 195 997 l 195 186 q 254 120 195 120 l 308 120 q 362 186 362 120 l 362 997 l 495 997 m 273 1139 l 215 1058 l 112 1058 l 231 1214 l 315 1214 l 434 1058 l 331 1058 l 273 1139 "},"Ò":{"x_min":55.5625,"x_max":502.8125,"ha":558,"o":"m 216 0 q 55 169 55 0 l 55 826 q 215 997 55 997 l 343 997 q 502 826 502 997 l 502 169 q 341 0 502 0 l 216 0 m 248 120 l 316 120 q 369 179 369 120 l 369 818 q 309 876 369 876 l 247 876 q 188 818 188 876 l 188 179 q 248 120 188 120 m 160 1226 l 282 1226 l 346 1062 l 251 1062 l 160 1226 "},"&":{"x_min":55.5625,"x_max":504.203125,"ha":518,"o":"m 161 515 q 72 622 72 536 l 72 826 q 231 997 72 997 l 284 997 q 444 826 444 997 l 444 738 l 319 738 l 319 827 q 258 886 319 886 l 243 886 q 197 827 197 877 l 197 630 q 258 558 197 558 l 504 558 l 504 459 l 444 459 l 444 169 q 283 0 444 0 l 216 0 q 55 169 55 0 l 55 395 q 161 515 55 487 m 319 459 l 259 459 q 180 387 180 459 l 180 169 q 240 111 180 111 l 266 111 q 319 169 319 111 l 319 459 "},"˝":{"x_min":50,"x_max":422.25,"ha":472,"o":"m 422 963 l 302 963 l 225 780 l 312 780 l 422 963 m 245 963 l 126 963 l 50 780 l 137 780 l 245 963 "},"Ð":{"x_min":15.453125,"x_max":481.984375,"ha":538,"o":"m 62 0 l 62 997 l 294 997 q 481 805 481 997 l 481 144 q 322 0 481 0 l 62 0 m 195 120 l 295 120 q 348 165 348 120 l 348 804 q 288 876 348 876 l 195 876 l 195 120 m 15 422 l 15 533 l 298 533 l 298 422 l 15 422 "},"I":{"x_min":62.5,"x_max":195.84375,"ha":258,"o":"m 62 0 l 62 997 l 195 997 l 195 0 l 62 0 "},"ˉ":{"x_min":25,"x_max":372.25,"ha":397,"o":"m 372 836 l 372 934 l 25 934 l 25 836 l 372 836 "},"G":{"x_min":55.5625,"x_max":470.875,"ha":517,"o":"m 268 365 l 268 486 l 470 486 l 470 0 l 209 0 q 55 168 55 0 l 55 826 q 209 997 55 997 l 301 997 q 470 823 470 997 l 470 715 l 337 715 l 337 804 q 280 876 337 876 l 247 876 q 188 804 188 876 l 188 193 q 247 120 188 120 l 337 120 l 337 365 l 268 365 "},"`":{"x_min":11.109375,"x_max":197.234375,"ha":211,"o":"m 11 944 l 133 944 l 197 780 l 102 780 l 11 944 "},"·":{"x_min":41.671875,"x_max":183.34375,"ha":225,"o":"m 183 558 l 183 389 l 41 389 l 41 558 l 183 558 "},"r":{"x_min":62.5,"x_max":490.3125,"ha":525,"o":"m 62 997 l 323 997 q 476 826 476 997 l 476 580 q 397 415 476 450 l 490 0 l 363 0 l 276 402 l 195 402 l 195 0 l 62 0 l 62 997 m 195 516 l 283 516 q 343 588 343 516 l 343 804 q 283 876 343 876 l 195 876 l 195 516 "},"":{"x_min":13.890625,"x_max":393.09375,"ha":407,"o":"m 168 120 l 393 120 l 393 0 l 23 0 l 13 47 l 223 875 l 36 875 l 36 997 l 337 997 l 365 940 l 168 120 m 222 1147 l 280 1228 l 383 1228 l 263 1072 l 180 1072 l 61 1228 l 163 1228 l 222 1147 "},"¿":{"x_min":55.5625,"x_max":487.53125,"ha":522,"o":"m 354 727 l 354 559 q 349 512 354 529 q 336 486 344 495 q 309 461 329 476 l 213 390 q 193 364 197 376 q 188 325 188 352 l 188 186 q 233 122 188 122 l 298 122 q 354 186 354 122 l 354 219 l 487 219 l 487 170 q 333 0 487 0 l 208 0 q 55 170 55 0 l 55 373 q 60 420 55 404 q 75 448 65 437 q 102 472 86 459 l 195 544 q 216 568 212 556 q 220 608 220 580 l 220 727 l 354 727 m 213 827 l 213 997 l 355 997 l 355 827 l 213 827 "},"ý":{"x_min":13.890625,"x_max":472.265625,"ha":486,"o":"m 311 0 l 177 0 l 177 366 l 13 997 l 145 997 l 245 563 l 250 563 l 340 997 l 472 997 l 311 366 l 311 0 m 250 1044 l 155 1044 l 219 1208 l 342 1208 l 250 1044 "},"x":{"x_min":19.453125,"x_max":443.09375,"ha":463,"o":"m 440 0 l 311 0 l 236 379 l 233 379 l 143 0 l 19 0 l 145 504 l 27 997 l 158 997 l 233 629 l 236 629 l 319 997 l 443 997 l 323 504 l 440 0 "},"è":{"x_min":62.5,"x_max":393.09375,"ha":426,"o":"m 62 0 l 62 997 l 393 997 l 393 876 l 195 876 l 195 573 l 370 573 l 370 452 l 195 452 l 195 120 l 393 120 l 393 0 l 62 0 m 117 1208 l 239 1208 l 303 1044 l 208 1044 l 117 1208 "},"º":{"x_min":41.671875,"x_max":305.578125,"ha":347,"o":"m 195 463 l 151 463 q 41 568 41 463 l 41 893 q 151 997 41 997 l 195 997 q 305 893 305 997 l 305 568 q 195 463 305 463 m 183 920 l 162 920 q 131 882 131 920 l 131 577 q 162 538 131 538 l 183 538 q 215 577 215 538 l 215 882 q 183 920 215 920 "},"Ø":{"x_min":55.5625,"x_max":502.8125,"ha":558,"o":"m 418 1080 l 401 990 q 502 826 502 962 l 502 169 q 341 0 502 0 l 216 0 l 215 0 l 200 -83 l 137 -83 l 154 6 q 55 169 55 36 l 55 826 q 215 997 55 997 l 340 997 l 355 1080 l 418 1080 m 369 820 l 237 120 l 316 120 q 369 179 369 120 l 369 820 m 188 188 l 316 876 l 247 876 q 188 818 188 876 l 188 188 "},"μ":{"x_min":69.453125,"x_max":547.265625,"ha":557,"o":"m 359 997 l 484 997 l 484 138 q 519 100 484 100 l 547 100 l 547 0 l 456 0 l 401 55 q 290 0 355 0 l 188 0 l 188 -252 l 69 -252 l 69 997 l 193 997 l 193 173 q 248 120 193 120 l 359 120 l 359 997 "},"÷":{"x_min":34.71875,"x_max":576.4375,"ha":611,"o":"m 376 804 l 376 633 l 234 633 l 234 804 l 376 804 m 376 327 l 376 156 l 234 156 l 234 327 l 376 327 m 34 416 l 34 536 l 576 536 l 576 416 l 34 416 "},"h":{"x_min":62.5,"x_max":493.09375,"ha":556,"o":"m 359 0 l 359 452 l 195 452 l 195 0 l 62 0 l 62 997 l 195 997 l 195 573 l 359 573 l 359 997 l 493 997 l 493 0 l 359 0 "},".":{"x_min":41.671875,"x_max":183.34375,"ha":225,"o":"m 183 169 l 183 0 l 41 0 l 41 169 l 183 169 "},";":{"x_min":38.890625,"x_max":205.578125,"ha":222,"o":"m 58 -165 l 122 0 l 56 0 l 56 172 l 205 172 l 205 0 l 138 -165 l 58 -165 m 180 715 l 180 545 l 38 545 l 38 715 l 180 715 "},"f":{"x_min":62.5,"x_max":393.09375,"ha":421,"o":"m 370 573 l 370 452 l 195 452 l 195 0 l 62 0 l 62 997 l 393 997 l 393 876 l 195 876 l 195 573 l 370 573 "},"“":{"x_min":41.671875,"x_max":409.75,"ha":443,"o":"m 188 998 l 125 819 l 190 819 l 190 632 l 97 632 q 41 687 41 632 l 41 819 l 108 998 l 188 998 m 408 998 l 344 819 l 409 819 l 409 632 l 316 632 q 261 687 261 632 l 261 819 l 327 998 l 408 998 "},"A":{"x_min":55.5625,"x_max":475.03125,"ha":531,"o":"m 188 0 l 55 0 l 55 826 q 215 997 55 997 l 315 997 q 475 826 475 997 l 475 0 l 341 0 l 341 365 l 188 365 l 188 0 m 341 486 l 341 818 q 283 876 341 876 l 247 876 q 188 818 188 876 l 188 486 l 341 486 "},"6":{"x_min":62.5,"x_max":472.265625,"ha":535,"o":"m 330 715 l 330 804 q 270 876 330 876 l 248 876 q 195 818 195 876 l 195 515 l 279 570 l 319 570 q 472 400 472 570 l 472 168 q 319 0 472 0 l 215 0 q 62 168 62 0 l 62 826 q 215 997 62 997 l 311 997 q 463 826 463 997 l 463 715 l 330 715 m 195 450 l 195 180 q 254 120 195 120 l 279 120 q 338 180 338 120 l 338 377 q 279 450 338 450 l 195 450 "},"‘":{"x_min":41.671875,"x_max":190.296875,"ha":224,"o":"m 188 998 l 125 819 l 190 819 l 190 632 l 97 632 q 41 687 41 632 l 41 819 l 108 998 l 188 998 "},"O":{"x_min":55.5625,"x_max":502.8125,"ha":558,"o":"m 216 0 q 55 169 55 0 l 55 826 q 215 997 55 997 l 343 997 q 502 826 502 997 l 502 169 q 341 0 502 0 l 216 0 m 248 120 l 316 120 q 369 179 369 120 l 369 818 q 309 876 369 876 l 247 876 q 188 818 188 876 l 188 179 q 248 120 188 120 "},"n":{"x_min":62.5,"x_max":472.265625,"ha":535,"o":"m 338 515 l 338 997 l 472 997 l 472 0 l 338 0 l 338 198 l 195 652 l 195 0 l 62 0 l 62 997 l 195 997 l 338 515 "},"3":{"x_min":48.609375,"x_max":462.53125,"ha":518,"o":"m 358 512 q 462 386 462 484 l 462 169 q 302 0 462 0 l 212 0 q 52 169 52 0 l 52 233 l 186 233 l 186 179 q 238 120 186 120 l 269 120 q 329 179 329 120 l 329 384 q 251 450 329 450 l 215 450 l 215 562 l 234 562 q 312 627 312 562 l 312 816 q 252 875 312 875 l 234 875 q 181 816 181 875 l 181 715 l 48 715 l 48 826 q 208 997 48 997 l 286 997 q 445 826 445 997 l 445 627 q 358 512 445 533 "},"9":{"x_min":62.5,"x_max":469.484375,"ha":532,"o":"m 204 233 l 204 193 q 263 120 204 120 l 283 120 q 336 179 336 120 l 336 420 l 252 365 l 222 365 q 62 543 62 365 l 62 822 q 222 997 62 997 l 309 997 q 469 822 469 997 l 469 177 q 309 0 469 0 l 230 0 q 70 177 70 0 l 70 233 l 204 233 m 336 486 l 336 816 q 270 876 336 876 l 255 876 q 195 816 195 876 l 195 558 q 255 486 195 486 l 336 486 "},"l":{"x_min":62.5,"x_max":379.203125,"ha":393,"o":"m 379 0 l 62 0 l 62 997 l 195 997 l 195 120 l 379 120 l 379 0 "},"¤":{"x_min":13.890625,"x_max":477.8125,"ha":533,"o":"m 329 622 l 329 541 l 197 541 l 197 483 l 283 483 l 283 401 l 197 401 l 197 179 q 255 120 197 120 l 290 120 q 344 176 344 120 l 344 216 l 477 216 l 477 168 q 316 0 477 0 l 223 0 q 63 175 63 0 l 63 401 l 13 401 l 13 483 l 63 483 l 63 541 l 13 541 l 13 622 l 63 622 l 63 826 q 223 997 63 997 l 316 997 q 477 826 477 997 l 477 772 l 344 772 l 344 816 q 283 876 344 876 l 255 876 q 197 818 197 876 l 197 622 l 329 622 "},"4":{"x_min":20.828125,"x_max":488.921875,"ha":510,"o":"m 488 233 l 412 233 l 412 0 l 281 0 l 281 233 l 48 233 l 20 345 l 279 997 l 412 997 l 412 345 l 488 345 l 488 233 m 295 732 l 288 732 l 162 345 l 286 345 l 295 732 "},"p":{"x_min":62.5,"x_max":466.703125,"ha":510,"o":"m 62 997 l 305 997 q 466 826 466 997 l 466 530 q 306 361 466 361 l 195 361 l 195 0 l 62 0 l 62 997 m 195 481 l 280 481 q 333 540 333 481 l 333 818 q 273 876 333 876 l 195 876 l 195 481 "},"‡":{"x_min":27.78125,"x_max":469.484375,"ha":497,"o":"m 27 129 l 27 0 l 181 0 l 181 -252 l 313 -252 l 313 0 l 469 0 l 469 129 l 313 129 l 313 586 l 469 586 l 469 715 l 313 715 l 313 997 l 181 997 l 181 715 l 27 715 l 27 586 l 181 586 l 181 129 l 27 129 "},"à":{"x_min":55.5625,"x_max":475.03125,"ha":531,"o":"m 188 0 l 55 0 l 55 826 q 215 997 55 997 l 315 997 q 475 826 475 997 l 475 0 l 341 0 l 341 365 l 188 365 l 188 0 m 341 486 l 341 818 q 283 876 341 876 l 247 876 q 188 818 188 876 l 188 486 l 341 486 m 154 1236 l 276 1236 l 340 1072 l 245 1072 l 154 1236 "},"Ü":{"x_min":62.5,"x_max":495.875,"ha":558,"o":"m 495 997 l 495 188 q 334 0 495 0 l 222 0 q 62 190 62 0 l 62 997 l 195 997 l 195 186 q 254 120 195 120 l 308 120 q 362 186 362 120 l 362 997 l 495 997 m 237 1201 l 237 1062 l 126 1062 l 126 1201 l 237 1201 m 432 1201 l 432 1062 l 321 1062 l 321 1201 l 432 1201 "},"ó":{"x_min":55.5625,"x_max":502.8125,"ha":558,"o":"m 216 0 q 55 169 55 0 l 55 826 q 215 997 55 997 l 343 997 q 502 826 502 997 l 502 169 q 341 0 502 0 l 216 0 m 248 120 l 316 120 q 369 179 369 120 l 369 818 q 309 876 369 876 l 247 876 q 188 818 188 876 l 188 179 q 248 120 188 120 m 293 1058 l 198 1058 l 262 1222 l 385 1222 l 293 1058 "}}}
